<mxfile host="Electron" modified="2023-12-04T19:07:30.692Z" agent="Mozilla/5.0 (Macintosh; Intel Mac OS X 10_15_7) AppleWebKit/537.36 (KHTML, like Gecko) draw.io/21.5.1 Chrome/112.0.5615.204 Electron/24.6.0 Safari/537.36" etag="60HAT_7Rws8w83FrCxHO" version="21.5.1" type="device">
  <diagram id="bYCr0CYu-PO86U7jQA4s" name="Data Product Canvas">
    <mxGraphModel dx="2053" dy="897" grid="1" gridSize="10" guides="1" tooltips="1" connect="1" arrows="1" fold="1" page="1" pageScale="1" pageWidth="827" pageHeight="1169" math="0" shadow="0">
      <root>
        <mxCell id="0" />
        <mxCell id="U_fYF4rXB53wSbd23XHR-2" value="Template" style="" parent="0" />
        <mxCell id="U_fYF4rXB53wSbd23XHR-69" value="" style="group;fillColor=#ffffff;container=0;sketch=1;fontFamily=Architects Daughter;fontSource=https%3A%2F%2Ffonts.googleapis.com%2Fcss%3Ffamily%3DArchitects%2BDaughter;" parent="U_fYF4rXB53wSbd23XHR-2" vertex="1" connectable="0">
          <mxGeometry x="-8" y="120" width="1518" height="940" as="geometry" />
        </mxCell>
        <mxCell id="U_fYF4rXB53wSbd23XHR-4" value="" style="rounded=0;whiteSpace=wrap;html=1;strokeWidth=3;fillColor=default;sketch=0;fontFamily=Architects Daughter;fontSource=https%3A%2F%2Ffonts.googleapis.com%2Fcss%3Ffamily%3DArchitects%2BDaughter;" parent="U_fYF4rXB53wSbd23XHR-2" vertex="1">
          <mxGeometry x="-10" y="134" width="1520" height="940" as="geometry" />
        </mxCell>
        <mxCell id="U_fYF4rXB53wSbd23XHR-6" value="" style="rounded=0;whiteSpace=wrap;html=1;strokeWidth=1;labelBackgroundColor=none;fillColor=#E6E6E6;sketch=1;fontFamily=Architects Daughter;fontSource=https%3A%2F%2Ffonts.googleapis.com%2Fcss%3Ffamily%3DArchitects%2BDaughter;" parent="U_fYF4rXB53wSbd23XHR-2" vertex="1">
          <mxGeometry x="1170" y="170" width="297" height="40" as="geometry" />
        </mxCell>
        <mxCell id="U_fYF4rXB53wSbd23XHR-5" value="" style="rounded=0;whiteSpace=wrap;html=1;strokeWidth=1;sketch=1;fontFamily=Architects Daughter;fontSource=https%3A%2F%2Ffonts.googleapis.com%2Fcss%3Ffamily%3DArchitects%2BDaughter;" parent="U_fYF4rXB53wSbd23XHR-2" vertex="1">
          <mxGeometry x="320" y="170" width="850" height="40" as="geometry" />
        </mxCell>
        <mxCell id="U_fYF4rXB53wSbd23XHR-7" value="" style="rounded=0;whiteSpace=wrap;html=1;strokeWidth=1;sketch=1;fontFamily=Architects Daughter;fontSource=https%3A%2F%2Ffonts.googleapis.com%2Fcss%3Ffamily%3DArchitects%2BDaughter;" parent="U_fYF4rXB53wSbd23XHR-2" vertex="1">
          <mxGeometry x="1170" y="310" width="300" height="560" as="geometry" />
        </mxCell>
        <mxCell id="U_fYF4rXB53wSbd23XHR-10" value="" style="rounded=0;whiteSpace=wrap;html=1;strokeWidth=1;sketch=1;fontFamily=Architects Daughter;fontSource=https%3A%2F%2Ffonts.googleapis.com%2Fcss%3Ffamily%3DArchitects%2BDaughter;" parent="U_fYF4rXB53wSbd23XHR-2" vertex="1">
          <mxGeometry x="18" y="170" width="302" height="40" as="geometry" />
        </mxCell>
        <mxCell id="U_fYF4rXB53wSbd23XHR-11" value="" style="rounded=0;whiteSpace=wrap;html=1;strokeWidth=1;sketch=1;fontFamily=Architects Daughter;fontSource=https%3A%2F%2Ffonts.googleapis.com%2Fcss%3Ffamily%3DArchitects%2BDaughter;" parent="U_fYF4rXB53wSbd23XHR-2" vertex="1">
          <mxGeometry x="320" y="310" width="520" height="550" as="geometry" />
        </mxCell>
        <mxCell id="U_fYF4rXB53wSbd23XHR-23" value="Consumer(s)" style="text;html=1;strokeColor=none;fillColor=none;align=center;verticalAlign=middle;whiteSpace=wrap;rounded=0;fontSize=21;fontStyle=1;sketch=1;fontFamily=Architects Daughter;fontSource=https%3A%2F%2Ffonts.googleapis.com%2Fcss%3Ffamily%3DArchitects%2BDaughter;" parent="U_fYF4rXB53wSbd23XHR-2" vertex="1">
          <mxGeometry x="1170" y="410" width="300" height="20" as="geometry" />
        </mxCell>
        <mxCell id="U_fYF4rXB53wSbd23XHR-24" value="Domain" style="text;html=1;strokeColor=none;fillColor=none;align=left;verticalAlign=middle;whiteSpace=wrap;rounded=0;fontSize=21;fontStyle=1;sketch=1;fontFamily=Architects Daughter;fontSource=https%3A%2F%2Ffonts.googleapis.com%2Fcss%3Ffamily%3DArchitects%2BDaughter;" parent="U_fYF4rXB53wSbd23XHR-2" vertex="1">
          <mxGeometry x="34" y="180" width="210" height="20" as="geometry" />
        </mxCell>
        <mxCell id="U_fYF4rXB53wSbd23XHR-25" value="Data Product" style="text;html=1;strokeColor=none;fillColor=none;align=left;verticalAlign=middle;whiteSpace=wrap;rounded=0;fontSize=21;fontStyle=1;sketch=1;fontFamily=Architects Daughter;fontSource=https%3A%2F%2Ffonts.googleapis.com%2Fcss%3Ffamily%3DArchitects%2BDaughter;" parent="U_fYF4rXB53wSbd23XHR-2" vertex="1">
          <mxGeometry x="330" y="180" width="190" height="20" as="geometry" />
        </mxCell>
        <mxCell id="U_fYF4rXB53wSbd23XHR-37" value="&lt;font style=&quot;font-size: 10px&quot;&gt;Date&lt;br&gt;&lt;/font&gt;" style="text;html=1;strokeColor=none;fillColor=none;align=left;verticalAlign=middle;whiteSpace=wrap;rounded=0;fontSize=10;fontColor=#000000;sketch=1;fontFamily=Architects Daughter;fontSource=https%3A%2F%2Ffonts.googleapis.com%2Fcss%3Ffamily%3DArchitects%2BDaughter;" parent="U_fYF4rXB53wSbd23XHR-2" vertex="1">
          <mxGeometry x="1180" y="170" width="20" height="40" as="geometry" />
        </mxCell>
        <mxCell id="U_fYF4rXB53wSbd23XHR-39" value="" style="shape=image;aspect=fixed;image=data:image/svg+xml,PD94bWwgdmVyc2lvbj0iMS4wIiBlbmNvZGluZz0iVVRGLTgiID8+PCFET0NUWVBFIHN2ZyBQVUJMSUMgIi0vL1czQy8vRFREIFNWRyAxLjEgQmFzaWMvL0VOIiAiaHR0cDovL3d3dy53My5vcmcvR3JhcGhpY3MvU1ZHLzEuMS9EVEQvc3ZnMTEtYmFzaWMuZHRkIj4NCjxzdmcgeG1sbnM9Imh0dHA6Ly93d3cudzMub3JnLzIwMDAvc3ZnIiB4bWxuczp4bGluaz0iaHR0cDovL3d3dy53My5vcmcvMTk5OS94bGluayIgd2lkdGg9Ijg4IiBoZWlnaHQ9IjMxIiB2aWV3Qm94PSIwIDAgODggMzEiIGJhc2VQcm9maWxlPSJiYXNpYyIgdmVyc2lvbj0iMS4xIj4NCjxnIGlkPSJzdXJmYWNlMSI+DQo8cGF0aCBzdHlsZT0iIHN0cm9rZTpub25lO2ZpbGwtcnVsZTpub256ZXJvO2ZpbGw6cmdiKDY2LjY2NjY2NyUsNjkuODAzOTIyJSw2Ny4wNTg4MjQlKTtmaWxsLW9wYWNpdHk6MTsiIGQ9Ik0gMi4zMDA3ODEgMC4zNzUgTCA4NS40Mjk2ODggMC41MjM0MzggQyA4Ni41ODk4NDQgMC41MjM0MzggODcuNjI4OTA2IDAuMzUxNTYzIDg3LjYyODkwNiAyLjg1NTQ2OSBMIDg3LjUyNzM0NCAzMC40MTAxNTYgTCAwLjIwMzEyNSAzMC40MTAxNTYgTCAwLjIwMzEyNSAyLjc1MzkwNiBDIDAuMjAzMTI1IDEuNTE5NTMxIDAuMzI0MjE5IDAuMzc1IDIuMzAwNzgxIDAuMzc1IFogIi8+DQo8cGF0aCBzdHlsZT0iIHN0cm9rZTpub25lO2ZpbGwtcnVsZTpub256ZXJvO2ZpbGw6cmdiKDAlLDAlLDAlKTtmaWxsLW9wYWNpdHk6MTsiIGQ9Ik0gODYuMzUxNTYzIDAgTCAxLjY0ODQzOCAwIEMgMC43MzgyODEgMCAwIDAuNzQyMTg4IDAgMS42NTYyNSBMIDAgMzAuNjI1IEMgMCAzMC44MzIwMzEgMC4xNjc5NjkgMzEgMC4zNzEwOTQgMzEgTCA4Ny42Mjg5MDYgMzEgQyA4Ny44MzIwMzEgMzEgODggMzAuODMyMDMxIDg4IDMwLjYyNSBMIDg4IDEuNjU2MjUgQyA4OCAwLjc0MjE4OCA4Ny4yNjE3MTkgMCA4Ni4zNTE1NjMgMCBaIE0gMS42NDg0MzggMC43NSBMIDg2LjM1MTU2MyAwLjc1IEMgODYuODUxNTYzIDAuNzUgODcuMjUzOTA2IDEuMTU2MjUgODcuMjUzOTA2IDEuNjU2MjUgQyA4Ny4yNTM5MDYgMS42NTYyNSA4Ny4yNTM5MDYgMTMuMzU1NDY5IDg3LjI1MzkwNiAyMS43ODkwNjMgTCAyNi41MTU2MjUgMjEuNzg5MDYzIEMgMjQuMjk2ODc1IDI1LjgyODEyNSAyMC4wMjM0MzggMjguNTcwMzEzIDE1LjExNzE4OCAyOC41NzAzMTMgQyAxMC4yMDcwMzEgMjguNTcwMzEzIDUuOTMzNTk0IDI1LjgzMjAzMSAzLjcxNDg0NCAyMS43ODkwNjMgTCAwLjc0NjA5NCAyMS43ODkwNjMgQyAwLjc0NjA5NCAxMy4zNTU0NjkgMC43NDYwOTQgMS42NTYyNSAwLjc0NjA5NCAxLjY1NjI1IEMgMC43NDYwOTQgMS4xNTYyNSAxLjE0ODQzOCAwLjc1IDEuNjQ4NDM4IDAuNzUgWiAiLz4NCjxwYXRoIHN0eWxlPSIgc3Ryb2tlOm5vbmU7ZmlsbC1ydWxlOm5vbnplcm87ZmlsbDpyZ2IoMTAwJSwxMDAlLDEwMCUpO2ZpbGwtb3BhY2l0eToxOyIgZD0iTSA1NC4xMjUgMjQuMTcxODc1IEMgNTQuMzU5Mzc1IDI0LjE3MTg3NSA1NC41NzAzMTMgMjQuMTkxNDA2IDU0Ljc2MTcxOSAyNC4yMzA0NjkgQyA1NC45NTMxMjUgMjQuMjczNDM4IDU1LjExMzI4MSAyNC4zMzk4NDQgNTUuMjUgMjQuNDMzNTk0IEMgNTUuMzg2NzE5IDI0LjUyNzM0NCA1NS40OTIxODggMjQuNjUyMzQ0IDU1LjU2NjQwNiAyNC44MDg1OTQgQyA1NS42NDA2MjUgMjQuOTYwOTM4IDU1LjY3OTY4OCAyNS4xNTIzNDQgNTUuNjc5Njg4IDI1LjM4MjgxMyBDIDU1LjY3OTY4OCAyNS42Mjg5MDYgNTUuNjI1IDI1LjgzMjAzMSA1NS41MTE3MTkgMjUuOTk2MDk0IEMgNTUuNDAyMzQ0IDI2LjE2MDE1NiA1NS4yMzgyODEgMjYuMjk2ODc1IDU1LjAxOTUzMSAyNi40MDIzNDQgQyA1NS4zMjAzMTMgMjYuNDg4MjgxIDU1LjU0Mjk2OSAyNi42NDA2MjUgNTUuNjkxNDA2IDI2Ljg1NTQ2OSBDIDU1LjgzOTg0NCAyNy4wNzQyMTkgNTUuOTE0MDYzIDI3LjMzNTkzOCA1NS45MTQwNjMgMjcuNjQwNjI1IEMgNTUuOTE0MDYzIDI3Ljg4NjcxOSA1NS44NjcxODggMjguMTAxNTYzIDU1Ljc2OTUzMSAyOC4yODEyNSBDIDU1LjY3NTc4MSAyOC40NjA5MzggNTUuNTQ2ODc1IDI4LjYwOTM3NSA1NS4zODY3MTkgMjguNzIyNjU2IEMgNTUuMjIyNjU2IDI4LjgzNTkzOCA1NS4wMzkwNjMgMjguOTIxODc1IDU0LjgzMjAzMSAyOC45NzY1NjMgQyA1NC42MjUgMjkuMDMxMjUgNTQuNDE0MDYzIDI5LjA1ODU5NCA1NC4xOTUzMTMgMjkuMDU4NTk0IEwgNTEuODM1OTM4IDI5LjA1ODU5NCBMIDUxLjgzNTkzOCAyNC4xNzE4NzUgWiBNIDUzLjk4ODI4MSAyNi4xNDg0MzggQyA1NC4xNzk2ODggMjYuMTQ4NDM4IDU0LjMzNTkzOCAyNi4xMDE1NjMgNTQuNDYwOTM4IDI2LjAxMTcxOSBDIDU0LjU4MjAzMSAyNS45MTc5NjkgNTQuNjQ0NTMxIDI1Ljc3MzQzOCA1NC42NDQ1MzEgMjUuNTY2NDA2IEMgNTQuNjQ0NTMxIDI1LjQ1MzEyNSA1NC42MjUgMjUuMzU5Mzc1IDU0LjU4MjAzMSAyNS4yODkwNjMgQyA1NC41NDI5NjkgMjUuMjE0ODQ0IDU0LjQ4ODI4MSAyNS4xNTYyNSA1NC40MTc5NjkgMjUuMTE3MTg4IEMgNTQuMzUxNTYzIDI1LjA3NDIxOSA1NC4yNzM0MzggMjUuMDQ2ODc1IDU0LjE4MzU5NCAyNS4wMzEyNSBDIDU0LjA5NzY1NiAyNS4wMTU2MjUgNTQuMDAzOTA2IDI1LjAwNzgxMyA1My45MTAxNTYgMjUuMDA3ODEzIEwgNTIuOTA2MjUgMjUuMDA3ODEzIEwgNTIuOTA2MjUgMjYuMTQ4NDM4IFogTSA1NC4wNTA3ODEgMjguMjIyNjU2IEMgNTQuMTU2MjUgMjguMjIyNjU2IDU0LjI1NzgxMyAyOC4yMTA5MzggNTQuMzUxNTYzIDI4LjE5MTQwNiBDIDU0LjQ0OTIxOSAyOC4xNzE4NzUgNTQuNTMxMjUgMjguMTM2NzE5IDU0LjYwNTQ2OSAyOC4wODk4NDQgQyA1NC42NzU3ODEgMjguMDM5MDYzIDU0LjczNDM3NSAyNy45NzY1NjMgNTQuNzc3MzQ0IDI3Ljg5NDUzMSBDIDU0LjgyMDMxMyAyNy44MTI1IDU0Ljg0Mzc1IDI3LjcwNzAzMSA1NC44NDM3NSAyNy41NzgxMjUgQyA1NC44NDM3NSAyNy4zMjgxMjUgNTQuNzczNDM4IDI3LjE0ODQzOCA1NC42MzI4MTMgMjcuMDQyOTY5IEMgNTQuNDkyMTg4IDI2LjkzMzU5NCA1NC4zMDQ2ODggMjYuODgyODEzIDU0LjA3NDIxOSAyNi44ODI4MTMgTCA1Mi45MDYyNSAyNi44ODI4MTMgTCA1Mi45MDYyNSAyOC4yMjI2NTYgWiAiLz4NCjxwYXRoIHN0eWxlPSIgc3Ryb2tlOm5vbmU7ZmlsbC1ydWxlOm5vbnplcm87ZmlsbDpyZ2IoMTAwJSwxMDAlLDEwMCUpO2ZpbGwtb3BhY2l0eToxOyIgZD0iTSA1Ni4xMDE1NjMgMjQuMTcxODc1IEwgNTcuMzAwNzgxIDI0LjE3MTg3NSBMIDU4LjQzNzUgMjYuMTAxNTYzIEwgNTkuNTY2NDA2IDI0LjE3MTg3NSBMIDYwLjc1NzgxMyAyNC4xNzE4NzUgTCA1OC45NTcwMzEgMjcuMTgzNTk0IEwgNTguOTU3MDMxIDI5LjA1ODU5NCBMIDU3Ljg4NjcxOSAyOS4wNTg1OTQgTCA1Ny44ODY3MTkgMjcuMTU2MjUgWiAiLz4NCjxwYXRoIHN0eWxlPSIgc3Ryb2tlOm5vbmU7ZmlsbC1ydWxlOm5vbnplcm87ZmlsbDpyZ2IoMTAwJSwxMDAlLDEwMCUpO2ZpbGwtb3BhY2l0eToxOyIgZD0iTSAyNS4xMjEwOTQgMTQuNDcyNjU2IEMgMjUuMTI1IDIwLjAyNzM0NCAyMC42NDg0MzggMjQuNTM1MTU2IDE1LjEyNSAyNC41MzkwNjMgQyA5LjYwNTQ2OSAyNC41NDI5NjkgNS4xMjUgMjAuMDM5MDYzIDUuMTIxMDk0IDE0LjQ4NDM3NSBDIDUuMTIxMDk0IDE0LjQ4MDQ2OSA1LjEyMTA5NCAxNC40NzY1NjMgNS4xMjEwOTQgMTQuNDcyNjU2IEMgNS4xMTcxODggOC45MTQwNjMgOS41OTM3NSA0LjQwNjI1IDE1LjExMzI4MSA0LjQwMjM0NCBDIDIwLjYzNjcxOSA0LjM5ODQzOCAyNS4xMTcxODggOC45MDIzNDQgMjUuMTIxMDk0IDE0LjQ2MDkzOCBDIDI1LjEyMTA5NCAxNC40NjA5MzggMjUuMTIxMDk0IDE0LjQ2ODc1IDI1LjEyMTA5NCAxNC40NzI2NTYgWiAiLz4NCjxwYXRoIHN0eWxlPSIgc3Ryb2tlOm5vbmU7ZmlsbC1ydWxlOm5vbnplcm87ZmlsbDpyZ2IoMCUsMCUsMCUpO2ZpbGwtb3BhY2l0eToxOyIgZD0iTSAyMy4yNSA2LjI3MzQzOCBDIDI1LjQ2NDg0NCA4LjUwNzgxMyAyNi41NzQyMTkgMTEuMjM4MjgxIDI2LjU3NDIxOSAxNC40NzI2NTYgQyAyNi41NzQyMTkgMTcuNzAzMTI1IDI1LjQ4NDM3NSAyMC40MDYyNSAyMy4zMDQ2ODggMjIuNTgyMDMxIEMgMjAuOTkyMTg4IDI0Ljg3MTA5NCAxOC4yNjE3MTkgMjYuMDE1NjI1IDE1LjEwNTQ2OSAyNi4wMTU2MjUgQyAxMS45OTIxODggMjYuMDE1NjI1IDkuMzA0Njg4IDI0Ljg3ODkwNiA3LjA1MDc4MSAyMi42MDkzNzUgQyA0Ljc5Mjk2OSAyMC4zMzk4NDQgMy42Njc5NjkgMTcuNjI1IDMuNjY3OTY5IDE0LjQ3MjY1NiBDIDMuNjY3OTY5IDExLjMxNjQwNiA0Ljc5Mjk2OSA4LjU4MjAzMSA3LjA1MDc4MSA2LjI3MzQzOCBDIDkuMjQ2MDk0IDQuMDQyOTY5IDExLjkzMzU5NCAyLjkyNTc4MSAxNS4xMDU0NjkgMi45MjU3ODEgQyAxOC4zMTY0MDYgMi45MjU3ODEgMjEuMDMxMjUgNC4wNDI5NjkgMjMuMjUgNi4yNzM0MzggWiBNIDguNTQyOTY5IDcuNzc3MzQ0IEMgNi42Njc5NjkgOS42Nzk2ODggNS43MzA0NjkgMTEuOTE0MDYzIDUuNzMwNDY5IDE0LjQ3MjY1NiBDIDUuNzMwNDY5IDE3LjAzNTE1NiA2LjY2MDE1NiAxOS4yNDYwOTQgOC41MTE3MTkgMjEuMTEzMjgxIEMgMTAuMzY3MTg4IDIyLjk4MDQ2OSAxMi41NzgxMjUgMjMuOTE0MDYzIDE1LjE0MDYyNSAyMy45MTQwNjMgQyAxNy43MDMxMjUgMjMuOTE0MDYzIDE5LjkyOTY4OCAyMi45NzI2NTYgMjEuODI0MjE5IDIxLjA4NTkzOCBDIDIzLjYyMTA5NCAxOS4zMzIwMzEgMjQuNTE5NTMxIDE3LjEyODkwNiAyNC41MTk1MzEgMTQuNDcyNjU2IEMgMjQuNTE5NTMxIDExLjgzNTkzOCAyMy42MDU0NjkgOS42MDE1NjMgMjEuNzgxMjUgNy43NjE3MTkgQyAxOS45NTMxMjUgNS45MjE4NzUgMTcuNzQyMTg4IDUuMDAzOTA2IDE1LjE0MDYyNSA1LjAwMzkwNiBDIDEyLjUzOTA2MyA1LjAwMzkwNiAxMC4zMzk4NDQgNS45Mjk2ODggOC41NDI5NjkgNy43NzczNDQgWiBNIDEzLjQ3NjU2MyAxMy4zNDc2NTYgQyAxMy4xODc1IDEyLjcxODc1IDEyLjc2MTcxOSAxMi40MDYyNSAxMi4xODc1IDEyLjQwNjI1IEMgMTEuMTc1NzgxIDEyLjQwNjI1IDEwLjY3MTg3NSAxMy4wODk4NDQgMTAuNjcxODc1IDE0LjQ2MDkzOCBDIDEwLjY3MTg3NSAxNS44MjgxMjUgMTEuMTc1NzgxIDE2LjUxMTcxOSAxMi4xODc1IDE2LjUxMTcxOSBDIDEyLjg1NTQ2OSAxNi41MTE3MTkgMTMuMzMyMDMxIDE2LjE3OTY4OCAxMy42MTcxODggMTUuNTExNzE5IEwgMTUuMDE5NTMxIDE2LjI2MTcxOSBDIDE0LjM1MTU2MyAxNy40NTcwMzEgMTMuMzUxNTYzIDE4LjA1NDY4OCAxMi4wMTU2MjUgMTguMDU0Njg4IEMgMTAuOTg0Mzc1IDE4LjA1NDY4OCAxMC4xNTYyNSAxNy43MzgyODEgOS41MzkwNjMgMTcuMTAxNTYzIEMgOC45MTc5NjkgMTYuNDY0ODQ0IDguNjA1NDY5IDE1LjU4OTg0NCA4LjYwNTQ2OSAxNC40NzI2NTYgQyA4LjYwNTQ2OSAxMy4zNzEwOTQgOC45MjU3ODEgMTIuNSA5LjU2NjQwNiAxMS44NTU0NjkgQyAxMC4yMDcwMzEgMTEuMjEwOTM4IDExLjAwMzkwNiAxMC44ODY3MTkgMTEuOTU3MDMxIDEwLjg4NjcxOSBDIDEzLjM3MTA5NCAxMC44ODY3MTkgMTQuMzc4OTA2IDExLjQ0OTIxOSAxNC45OTIxODggMTIuNTY2NDA2IFogTSAyMC4wNjY0MDYgMTMuMzQ3NjU2IEMgMTkuNzgxMjUgMTIuNzE4NzUgMTkuMzU5Mzc1IDEyLjQwNjI1IDE4LjgwODU5NCAxMi40MDYyNSBDIDE3Ljc3NzM0NCAxMi40MDYyNSAxNy4yNTc4MTMgMTMuMDg5ODQ0IDE3LjI1NzgxMyAxNC40NjA5MzggQyAxNy4yNTc4MTMgMTUuODI4MTI1IDE3Ljc3NzM0NCAxNi41MTE3MTkgMTguODA4NTk0IDE2LjUxMTcxOSBDIDE5LjQ3NjU2MyAxNi41MTE3MTkgMTkuOTQ1MzEzIDE2LjE3OTY4OCAyMC4yMTA5MzggMTUuNTExNzE5IEwgMjEuNjQ0NTMxIDE2LjI2MTcxOSBDIDIwLjk3NjU2MyAxNy40NTcwMzEgMTkuOTc2NTYzIDE4LjA1NDY4OCAxOC42NDA2MjUgMTguMDU0Njg4IEMgMTcuNjEzMjgxIDE4LjA1NDY4OCAxNi43ODkwNjMgMTcuNzM4MjgxIDE2LjE3MTg3NSAxNy4xMDE1NjMgQyAxNS41NTA3ODEgMTYuNDY0ODQ0IDE1LjI0MjE4OCAxNS41ODk4NDQgMTUuMjQyMTg4IDE0LjQ3MjY1NiBDIDE1LjI0MjE4OCAxMy4zNzEwOTQgMTUuNTU0Njg4IDEyLjUgMTYuMTgzNTk0IDExLjg1NTQ2OSBDIDE2LjgxMjUgMTEuMjEwOTM4IDE3LjYxMzI4MSAxMC44ODY3MTkgMTguNTg1OTM4IDEwLjg4NjcxOSBDIDE5Ljk5NjA5NCAxMC44ODY3MTkgMjEuMDAzOTA2IDExLjQ0OTIxOSAyMS42MTMyODEgMTIuNTY2NDA2IFogIi8+DQo8cGF0aCBzdHlsZT0iIHN0cm9rZTpub25lO2ZpbGwtcnVsZTpub256ZXJvO2ZpbGw6cmdiKDEwMCUsMTAwJSwxMDAlKTtmaWxsLW9wYWNpdHk6MTsiIGQ9Ik0gNjMuODA0Njg4IDExLjIzMDQ2OSBDIDYzLjgwNDY4OCAxNS42MDkzNzUgNjAuMjc3MzQ0IDE5LjE1NjI1IDU1LjkyOTY4OCAxOS4xNTYyNSBDIDUxLjU3ODEyNSAxOS4xNTYyNSA0OC4wNTQ2ODggMTUuNjA5Mzc1IDQ4LjA1NDY4OCAxMS4yMzA0NjkgQyA0OC4wNTQ2ODggNi44NTU0NjkgNTEuNTc4MTI1IDMuMzA0Njg4IDU1LjkyOTY4OCAzLjMwNDY4OCBDIDYwLjI3NzM0NCAzLjMwNDY4OCA2My44MDQ2ODggNi44NTU0NjkgNjMuODA0Njg4IDExLjIzMDQ2OSBaICIvPg0KPHBhdGggc3R5bGU9IiBzdHJva2U6bm9uZTtmaWxsLXJ1bGU6bm9uemVybztmaWxsOnJnYigwJSwwJSwwJSk7ZmlsbC1vcGFjaXR5OjE7IiBkPSJNIDU4LjIwNzAzMSA4LjkzNzUgQyA1OC4yMDcwMzEgOC42MzI4MTMgNTcuOTYwOTM4IDguMzg2NzE5IDU3LjY2MDE1NiA4LjM4NjcxOSBMIDU0LjE3OTY4OCA4LjM4NjcxOSBDIDUzLjg3ODkwNiA4LjM4NjcxOSA1My42MzI4MTMgOC42MzI4MTMgNTMuNjMyODEzIDguOTM3NSBMIDUzLjYzMjgxMyAxMi40Mzc1IEwgNTQuNjAxNTYzIDEyLjQzNzUgTCA1NC42MDE1NjMgMTYuNTg1OTM4IEwgNTcuMjM4MjgxIDE2LjU4NTkzOCBMIDU3LjIzODI4MSAxMi40Mzc1IEwgNTguMjA3MDMxIDEyLjQzNzUgWiAiLz4NCjxwYXRoIHN0eWxlPSIgc3Ryb2tlOm5vbmU7ZmlsbC1ydWxlOm5vbnplcm87ZmlsbDpyZ2IoMCUsMCUsMCUpO2ZpbGwtb3BhY2l0eToxOyIgZD0iTSA1Ny4xMDkzNzUgNi43MjY1NjMgQyA1Ny4xMDkzNzUgNy4zODY3MTkgNTYuNTc4MTI1IDcuOTI1NzgxIDU1LjkyMTg3NSA3LjkyNTc4MSBDIDU1LjI2MTcxOSA3LjkyNTc4MSA1NC43MzA0NjkgNy4zODY3MTkgNTQuNzMwNDY5IDYuNzI2NTYzIEMgNTQuNzMwNDY5IDYuMDY2NDA2IDU1LjI2MTcxOSA1LjUzMTI1IDU1LjkyMTg3NSA1LjUzMTI1IEMgNTYuNTc4MTI1IDUuNTMxMjUgNTcuMTA5Mzc1IDYuMDY2NDA2IDU3LjEwOTM3NSA2LjcyNjU2MyBaICIvPg0KPHBhdGggc3R5bGU9IiBzdHJva2U6bm9uZTtmaWxsLXJ1bGU6ZXZlbm9kZDtmaWxsOnJnYigwJSwwJSwwJSk7ZmlsbC1vcGFjaXR5OjE7IiBkPSJNIDU1LjkxMDE1NiAyLjUgQyA1My41NTQ2ODggMi41IDUxLjU1ODU5NCAzLjMyODEyNSA0OS45MjU3ODEgNC45ODA0NjkgQyA0OC4yNTM5MDYgNi42OTE0MDYgNDcuNDE3OTY5IDguNzE4NzUgNDcuNDE3OTY5IDExLjA1ODU5NCBDIDQ3LjQxNzk2OSAxMy4zOTQ1MzEgNDguMjUzOTA2IDE1LjQwNjI1IDQ5LjkyNTc4MSAxNy4wODk4NDQgQyA1MS42MDE1NjMgMTguNzczNDM4IDUzLjU5NzY1NiAxOS42MTMyODEgNTUuOTEwMTU2IDE5LjYxMzI4MSBDIDU4LjI1IDE5LjYxMzI4MSA2MC4yODEyNSAxOC43NjU2MjUgNjEuOTk2MDk0IDE3LjA3MDMxMyBDIDYzLjYxMzI4MSAxNS40NTcwMzEgNjQuNDI1NzgxIDEzLjQ1MzEyNSA2NC40MjU3ODEgMTEuMDU4NTk0IEMgNjQuNDI1NzgxIDguNjYwMTU2IDYzLjYwMTU2MyA2LjYzNjcxOSA2MS45NTcwMzEgNC45ODA0NjkgQyA2MC4zMDg1OTQgMy4zMjgxMjUgNTguMjkyOTY5IDIuNSA1NS45MTAxNTYgMi41IFogTSA1NS45Mjk2ODggNC4wMzkwNjMgQyA1Ny44NTkzNzUgNC4wMzkwNjMgNTkuNSA0LjcyMjY1NiA2MC44NDc2NTYgNi4wOTM3NSBDIDYyLjIxMDkzOCA3LjQ0OTIxOSA2Mi44OTA2MjUgOS4xMDE1NjMgNjIuODkwNjI1IDExLjA1ODU5NCBDIDYyLjg5MDYyNSAxMy4wMjM0MzggNjIuMjIyNjU2IDE0LjY2MDE1NiA2MC44OTA2MjUgMTUuOTU3MDMxIEMgNTkuNDg0Mzc1IDE3LjM1NTQ2OSA1Ny44MzIwMzEgMTguMDU0Njg4IDU1LjkyOTY4OCAxOC4wNTQ2ODggQyA1NC4wMjczNDQgMTguMDU0Njg4IDUyLjM5MDYyNSAxNy4zNjMyODEgNTEuMDExNzE5IDE1Ljk3NjU2MyBDIDQ5LjYzNjcxOSAxNC41OTM3NSA0OC45NDkyMTkgMTIuOTUzMTI1IDQ4Ljk0OTIxOSAxMS4wNTg1OTQgQyA0OC45NDkyMTkgOS4xNjAxNTYgNDkuNjQ0NTMxIDcuNTAzOTA2IDUxLjAzNTE1NiA2LjA5Mzc1IEMgNTIuMzY3MTg4IDQuNzIyNjU2IDU0IDQuMDM5MDYzIDU1LjkyOTY4OCA0LjAzOTA2MyBaICIvPg0KPC9nPg0KPC9zdmc+DQo=;sketch=1;fontFamily=Architects Daughter;fontSource=https%3A%2F%2Ffonts.googleapis.com%2Fcss%3Ffamily%3DArchitects%2BDaughter;" parent="U_fYF4rXB53wSbd23XHR-2" vertex="1">
          <mxGeometry x="1390" y="180" width="56.77" height="20" as="geometry" />
        </mxCell>
        <mxCell id="E_qXZ96XAn3eAcBALMoJ-28" value="Data Contract" style="text;html=1;strokeColor=none;fillColor=none;align=left;verticalAlign=middle;whiteSpace=wrap;rounded=0;fontSize=21;fontStyle=1;sketch=1;fontFamily=Architects Daughter;fontSource=https%3A%2F%2Ffonts.googleapis.com%2Fcss%3Ffamily%3DArchitects%2BDaughter;" parent="U_fYF4rXB53wSbd23XHR-2" vertex="1">
          <mxGeometry x="882" y="387.5" width="183" height="20" as="geometry" />
        </mxCell>
        <mxCell id="E_qXZ96XAn3eAcBALMoJ-66" value="Data Product Architecture" style="text;html=1;strokeColor=none;fillColor=none;align=center;verticalAlign=middle;whiteSpace=wrap;rounded=0;fontSize=21;fontStyle=1;sketch=1;fontFamily=Architects Daughter;fontSource=https%3A%2F%2Ffonts.googleapis.com%2Fcss%3Ffamily%3DArchitects%2BDaughter;" parent="U_fYF4rXB53wSbd23XHR-2" vertex="1">
          <mxGeometry x="320" y="263" width="520" height="20" as="geometry" />
        </mxCell>
        <mxCell id="E_qXZ96XAn3eAcBALMoJ-71" value="" style="rounded=0;whiteSpace=wrap;html=1;strokeWidth=1;sketch=1;fontFamily=Architects Daughter;fontSource=https%3A%2F%2Ffonts.googleapis.com%2Fcss%3Ffamily%3DArchitects%2BDaughter;" parent="U_fYF4rXB53wSbd23XHR-2" vertex="1">
          <mxGeometry x="320" y="943" width="1150" height="90" as="geometry" />
        </mxCell>
        <mxCell id="U_fYF4rXB53wSbd23XHR-19" value="Ubiquitous Language" style="text;html=1;strokeColor=none;fillColor=none;align=center;verticalAlign=middle;whiteSpace=wrap;rounded=0;fontSize=21;fontStyle=1;sketch=1;fontFamily=Architects Daughter;fontSource=https%3A%2F%2Ffonts.googleapis.com%2Fcss%3Ffamily%3DArchitects%2BDaughter;" parent="U_fYF4rXB53wSbd23XHR-2" vertex="1">
          <mxGeometry x="330" y="953" width="210" height="20" as="geometry" />
        </mxCell>
        <mxCell id="U_fYF4rXB53wSbd23XHR-26" value="&lt;font style=&quot;font-size: 13px;&quot;&gt;Context-specific domain terminology (relevant for Data Product)&lt;/font&gt;" style="text;html=1;strokeColor=none;fillColor=none;align=left;verticalAlign=middle;whiteSpace=wrap;rounded=0;fontSize=13;fontColor=#B3B3B3;sketch=1;fontFamily=Architects Daughter;fontSource=https%3A%2F%2Ffonts.googleapis.com%2Fcss%3Ffamily%3DArchitects%2BDaughter;" parent="U_fYF4rXB53wSbd23XHR-2" vertex="1">
          <mxGeometry x="340" y="985" width="470" height="20" as="geometry" />
        </mxCell>
        <mxCell id="E_qXZ96XAn3eAcBALMoJ-74" value="" style="rounded=0;whiteSpace=wrap;html=1;strokeWidth=1;sketch=1;fontFamily=Architects Daughter;fontSource=https%3A%2F%2Ffonts.googleapis.com%2Fcss%3Ffamily%3DArchitects%2BDaughter;" parent="U_fYF4rXB53wSbd23XHR-2" vertex="1">
          <mxGeometry x="18" y="943" width="302" height="90" as="geometry" />
        </mxCell>
        <mxCell id="E_qXZ96XAn3eAcBALMoJ-75" value="Classification" style="text;html=1;strokeColor=none;fillColor=none;align=left;verticalAlign=middle;whiteSpace=wrap;rounded=0;fontSize=21;fontStyle=1;sketch=1;fontFamily=Architects Daughter;fontSource=https%3A%2F%2Ffonts.googleapis.com%2Fcss%3Ffamily%3DArchitects%2BDaughter;" parent="U_fYF4rXB53wSbd23XHR-2" vertex="1">
          <mxGeometry x="34" y="953" width="210" height="20" as="geometry" />
        </mxCell>
        <mxCell id="E_qXZ96XAn3eAcBALMoJ-76" value="The archetype of the provided data (source-aligned, aggregate, consumer-aligned)" style="text;html=1;strokeColor=none;fillColor=none;align=left;verticalAlign=middle;whiteSpace=wrap;rounded=0;fontSize=13;fontColor=#B3B3B3;sketch=1;fontFamily=Architects Daughter;fontSource=https%3A%2F%2Ffonts.googleapis.com%2Fcss%3Ffamily%3DArchitects%2BDaughter;" parent="U_fYF4rXB53wSbd23XHR-2" vertex="1">
          <mxGeometry x="34" y="985" width="275" height="20" as="geometry" />
        </mxCell>
        <mxCell id="Za5CWNXPQ3LmKtegDUKQ-1" value="&lt;div style=&quot;font-size: 13px;&quot;&gt;&lt;span style=&quot;background-color: initial; font-size: 13px;&quot;&gt;We believe that &amp;lt;....&amp;gt;&lt;/span&gt;&lt;/div&gt;&lt;div style=&quot;font-size: 13px;&quot;&gt;&lt;span style=&quot;background-color: initial; font-size: 13px;&quot;&gt;Will help achieving &amp;lt;...&amp;gt;&lt;/span&gt;&lt;/div&gt;&lt;div style=&quot;font-size: 13px;&quot;&gt;&lt;span style=&quot;background-color: initial; font-size: 13px;&quot;&gt;We know, we are getting there based on &amp;lt;...&amp;gt;, &amp;lt;...&amp;gt;, &amp;lt;...&amp;gt;&lt;/span&gt;&lt;/div&gt;" style="text;html=1;strokeColor=none;fillColor=none;align=left;verticalAlign=middle;whiteSpace=wrap;rounded=0;fontSize=13;fontColor=#B3B3B3;sketch=1;fontFamily=Architects Daughter;fontSource=https%3A%2F%2Ffonts.googleapis.com%2Fcss%3Ffamily%3DArchitects%2BDaughter;" parent="U_fYF4rXB53wSbd23XHR-2" vertex="1">
          <mxGeometry x="1240" y="565" width="186" height="20" as="geometry" />
        </mxCell>
        <mxCell id="Za5CWNXPQ3LmKtegDUKQ-2" value="Use Case(s)" style="text;html=1;strokeColor=none;fillColor=none;align=center;verticalAlign=middle;whiteSpace=wrap;rounded=0;fontSize=21;fontStyle=1;sketch=1;fontFamily=Architects Daughter;fontSource=https%3A%2F%2Ffonts.googleapis.com%2Fcss%3Ffamily%3DArchitects%2BDaughter;" parent="U_fYF4rXB53wSbd23XHR-2" vertex="1">
          <mxGeometry x="1170" y="517" width="300" height="20" as="geometry" />
        </mxCell>
        <mxCell id="1" value="datamesh-architecture.com" style="text;html=1;strokeColor=none;fillColor=none;align=right;verticalAlign=middle;whiteSpace=wrap;rounded=0;sketch=1;fillStyle=hachure;fontFamily=Architects Daughter;fontSource=https%3A%2F%2Ffonts.googleapis.com%2Fcss%3Ffamily%3DArchitects%2BDaughter;fontSize=12;fontColor=#000000;" parent="U_fYF4rXB53wSbd23XHR-2" vertex="1">
          <mxGeometry x="1200" y="1040" width="270" height="30" as="geometry" />
        </mxCell>
        <mxCell id="2" value="Data Product Canvas" style="text;html=1;strokeColor=none;fillColor=none;align=left;verticalAlign=middle;whiteSpace=wrap;rounded=0;sketch=1;fillStyle=hachure;fontFamily=Architects Daughter;fontSource=https%3A%2F%2Ffonts.googleapis.com%2Fcss%3Ffamily%3DArchitects%2BDaughter;fontSize=12;fontColor=#000000;" parent="U_fYF4rXB53wSbd23XHR-2" vertex="1">
          <mxGeometry x="18" y="1040" width="270" height="30" as="geometry" />
        </mxCell>
        <mxCell id="ilY5u6nDV1AzrqMbQQu_-3" value="&lt;font color=&quot;#000000&quot; style=&quot;font-size: 13px;&quot;&gt;&amp;lt;Security&amp;gt;&lt;/font&gt;" style="rounded=0;whiteSpace=wrap;html=1;labelBackgroundColor=none;strokeWidth=1;fillColor=#dae8fc;fontSize=13;align=center;strokeColor=#6c8ebf;sketch=1;fontFamily=Architects Daughter;fontSource=https%3A%2F%2Ffonts.googleapis.com%2Fcss%3Ffamily%3DArchitects%2BDaughter;" parent="U_fYF4rXB53wSbd23XHR-2" vertex="1">
          <mxGeometry x="878" y="813.5" width="80" height="40" as="geometry" />
        </mxCell>
        <mxCell id="ilY5u6nDV1AzrqMbQQu_-4" value="&lt;p style=&quot;font-size: 13px;&quot;&gt;&lt;span style=&quot;font-size: 13px;&quot;&gt;&lt;font style=&quot;font-size: 13px;&quot;&gt;Promises and expectations around availability, support, retention, backups&lt;/font&gt;&lt;/span&gt;&lt;br style=&quot;font-size: 13px;&quot;&gt;&lt;/p&gt;" style="text;whiteSpace=wrap;html=1;fontFamily=Architects Daughter;labelBackgroundColor=none;fontSize=13;fontColor=#CCCCCC;fontSource=https%3A%2F%2Ffonts.googleapis.com%2Fcss%3Ffamily%3DArchitects%2BDaughter;verticalAlign=middle;" parent="U_fYF4rXB53wSbd23XHR-2" vertex="1">
          <mxGeometry x="978" y="740" width="181" height="55" as="geometry" />
        </mxCell>
        <mxCell id="ilY5u6nDV1AzrqMbQQu_-5" value="Who is the customer of the Data Product?" style="text;html=1;strokeColor=none;fillColor=none;align=left;verticalAlign=middle;whiteSpace=wrap;rounded=0;fontSize=13;fontColor=#B3B3B3;fontFamily=Architects Daughter;fontSource=https%3A%2F%2Ffonts.googleapis.com%2Fcss%3Ffamily%3DArchitects%2BDaughter;" parent="U_fYF4rXB53wSbd23XHR-2" vertex="1">
          <mxGeometry x="1240.0049999999999" y="448" width="158.55" height="20" as="geometry" />
        </mxCell>
        <mxCell id="ilY5u6nDV1AzrqMbQQu_-8" value="&lt;p style=&quot;font-size: 13px;&quot;&gt;&lt;span style=&quot;font-size: 13px;&quot;&gt;&lt;font style=&quot;font-size: 13px;&quot;&gt;Who may access the data?&lt;br&gt;Approval necessary? &lt;br&gt;Data privacy limitations?&lt;br&gt;&lt;/font&gt;&lt;/span&gt;&lt;/p&gt;" style="text;whiteSpace=wrap;html=1;fontFamily=Architects Daughter;labelBackgroundColor=none;fontSize=13;fontColor=#CCCCCC;fontSource=https%3A%2F%2Ffonts.googleapis.com%2Fcss%3Ffamily%3DArchitects%2BDaughter;verticalAlign=middle;" parent="U_fYF4rXB53wSbd23XHR-2" vertex="1">
          <mxGeometry x="978" y="806" width="181" height="55" as="geometry" />
        </mxCell>
        <mxCell id="ilY5u6nDV1AzrqMbQQu_-9" value="" style="endArrow=none;dashed=1;html=1;rounded=0;exitX=0;exitY=0;exitDx=0;exitDy=0;entryX=1;entryY=0;entryDx=0;entryDy=0;" parent="U_fYF4rXB53wSbd23XHR-2" edge="1">
          <mxGeometry width="50" height="50" relative="1" as="geometry">
            <mxPoint x="320" y="427.00000000000017" as="sourcePoint" />
            <mxPoint x="840" y="427" as="targetPoint" />
          </mxGeometry>
        </mxCell>
        <mxCell id="ilY5u6nDV1AzrqMbQQu_-10" value="" style="endArrow=none;dashed=1;html=1;rounded=0;exitX=0;exitY=0;exitDx=0;exitDy=0;entryX=1;entryY=0;entryDx=0;entryDy=0;" parent="U_fYF4rXB53wSbd23XHR-2" edge="1">
          <mxGeometry width="50" height="50" relative="1" as="geometry">
            <mxPoint x="320" y="740.0000000000002" as="sourcePoint" />
            <mxPoint x="840" y="740" as="targetPoint" />
          </mxGeometry>
        </mxCell>
        <mxCell id="ilY5u6nDV1AzrqMbQQu_-11" value="&lt;span style=&quot;text-align: left ; font-size: 13px&quot;&gt;&lt;font color=&quot;#cccccc&quot; style=&quot;font-size: 13px&quot;&gt;Ingestion, cleaning,, conversions, aggregations, joining&lt;br style=&quot;font-size: 13px&quot;&gt;&lt;/font&gt;&lt;/span&gt;" style="text;html=1;strokeColor=none;fillColor=none;align=center;verticalAlign=middle;whiteSpace=wrap;rounded=0;fontSize=13;fontColor=#B3B3B3;sketch=1;fontFamily=Architects Daughter;fontSource=https%3A%2F%2Ffonts.googleapis.com%2Fcss%3Ffamily%3DArchitects%2BDaughter;" parent="U_fYF4rXB53wSbd23XHR-2" vertex="1">
          <mxGeometry x="320" y="455" width="520" height="40" as="geometry" />
        </mxCell>
        <mxCell id="ilY5u6nDV1AzrqMbQQu_-12" value="Transformation Steps" style="text;html=1;strokeColor=none;fillColor=none;align=center;verticalAlign=middle;whiteSpace=wrap;rounded=0;fontSize=13;fontStyle=1;sketch=1;fontFamily=Architects Daughter;fontSource=https%3A%2F%2Ffonts.googleapis.com%2Fcss%3Ffamily%3DArchitects%2BDaughter;" parent="U_fYF4rXB53wSbd23XHR-2" vertex="1">
          <mxGeometry x="320" y="445" width="520" height="20" as="geometry" />
        </mxCell>
        <mxCell id="ilY5u6nDV1AzrqMbQQu_-13" value="Storage" style="text;html=1;strokeColor=none;fillColor=none;align=center;verticalAlign=middle;whiteSpace=wrap;rounded=0;fontSize=13;fontStyle=1;sketch=1;fontFamily=Architects Daughter;fontSource=https%3A%2F%2Ffonts.googleapis.com%2Fcss%3Ffamily%3DArchitects%2BDaughter;" parent="U_fYF4rXB53wSbd23XHR-2" vertex="1">
          <mxGeometry x="490" y="756.5" width="180" height="20" as="geometry" />
        </mxCell>
        <mxCell id="ilY5u6nDV1AzrqMbQQu_-14" value="&lt;span style=&quot;text-align: left ; font-size: 13px&quot;&gt;&lt;font color=&quot;#cccccc&quot; style=&quot;font-size: 13px&quot;&gt;tables, files, topic&lt;br style=&quot;font-size: 13px&quot;&gt;&lt;/font&gt;&lt;/span&gt;" style="text;html=1;strokeColor=none;fillColor=none;align=center;verticalAlign=middle;whiteSpace=wrap;rounded=0;fontSize=13;fontColor=#B3B3B3;sketch=1;fontFamily=Architects Daughter;fontSource=https%3A%2F%2Ffonts.googleapis.com%2Fcss%3Ffamily%3DArchitects%2BDaughter;" parent="U_fYF4rXB53wSbd23XHR-2" vertex="1">
          <mxGeometry x="490" y="769" width="184.5" height="41" as="geometry" />
        </mxCell>
        <mxCell id="ilY5u6nDV1AzrqMbQQu_-15" value="Query Engine" style="text;html=1;strokeColor=none;fillColor=none;align=center;verticalAlign=middle;whiteSpace=wrap;rounded=0;fontSize=13;fontStyle=1;sketch=1;fontFamily=Architects Daughter;fontSource=https%3A%2F%2Ffonts.googleapis.com%2Fcss%3Ffamily%3DArchitects%2BDaughter;" parent="U_fYF4rXB53wSbd23XHR-2" vertex="1">
          <mxGeometry x="320" y="756.5" width="170" height="20" as="geometry" />
        </mxCell>
        <mxCell id="ilY5u6nDV1AzrqMbQQu_-16" value="&lt;span style=&quot;text-align: left ; font-size: 13px&quot;&gt;&lt;font color=&quot;#cccccc&quot; style=&quot;font-size: 13px&quot;&gt;SQL, Python, Notebook&lt;br style=&quot;font-size: 13px&quot;&gt;&lt;/font&gt;&lt;/span&gt;" style="text;html=1;strokeColor=none;fillColor=none;align=center;verticalAlign=middle;whiteSpace=wrap;rounded=0;fontSize=13;fontColor=#B3B3B3;sketch=1;fontFamily=Architects Daughter;fontSource=https%3A%2F%2Ffonts.googleapis.com%2Fcss%3Ffamily%3DArchitects%2BDaughter;" parent="U_fYF4rXB53wSbd23XHR-2" vertex="1">
          <mxGeometry x="320" y="769" width="180" height="40" as="geometry" />
        </mxCell>
        <mxCell id="ilY5u6nDV1AzrqMbQQu_-18" value="" style="endArrow=none;dashed=1;html=1;rounded=0;" parent="U_fYF4rXB53wSbd23XHR-2" edge="1">
          <mxGeometry width="50" height="50" relative="1" as="geometry">
            <mxPoint x="670" y="740" as="sourcePoint" />
            <mxPoint x="670" y="859" as="targetPoint" />
          </mxGeometry>
        </mxCell>
        <mxCell id="ilY5u6nDV1AzrqMbQQu_-19" value="Scheduling &amp;amp; Monitoring" style="text;html=1;strokeColor=none;fillColor=none;align=center;verticalAlign=middle;whiteSpace=wrap;rounded=0;fontSize=13;fontStyle=1;sketch=1;fontFamily=Architects Daughter;fontSource=https%3A%2F%2Ffonts.googleapis.com%2Fcss%3Ffamily%3DArchitects%2BDaughter;" parent="U_fYF4rXB53wSbd23XHR-2" vertex="1">
          <mxGeometry x="670" y="756.5" width="170" height="23.5" as="geometry" />
        </mxCell>
        <mxCell id="ilY5u6nDV1AzrqMbQQu_-20" value="&lt;span style=&quot;text-align: left ; font-size: 13px&quot;&gt;&lt;font color=&quot;#cccccc&quot; style=&quot;font-size: 13px&quot;&gt;CI/CD, Airflow, Soda, ...&lt;br style=&quot;font-size: 13px&quot;&gt;&lt;/font&gt;&lt;/span&gt;" style="text;html=1;strokeColor=none;fillColor=none;align=center;verticalAlign=middle;whiteSpace=wrap;rounded=0;fontSize=13;fontColor=#B3B3B3;sketch=1;fontFamily=Architects Daughter;fontSource=https%3A%2F%2Ffonts.googleapis.com%2Fcss%3Ffamily%3DArchitects%2BDaughter;" parent="U_fYF4rXB53wSbd23XHR-2" vertex="1">
          <mxGeometry x="670" y="769" width="170" height="40" as="geometry" />
        </mxCell>
        <mxCell id="ilY5u6nDV1AzrqMbQQu_-21" value="Framework" style="text;html=1;strokeColor=none;fillColor=none;align=center;verticalAlign=middle;whiteSpace=wrap;rounded=0;fontSize=13;fontStyle=1;sketch=1;fontFamily=Architects Daughter;fontSource=https%3A%2F%2Ffonts.googleapis.com%2Fcss%3Ffamily%3DArchitects%2BDaughter;" parent="U_fYF4rXB53wSbd23XHR-2" vertex="1">
          <mxGeometry x="490" y="323" width="170" height="16" as="geometry" />
        </mxCell>
        <mxCell id="ilY5u6nDV1AzrqMbQQu_-22" value="dbt, Databricks, Java, ...&lt;span style=&quot;text-align: left ; font-size: 13px&quot;&gt;&lt;font color=&quot;#cccccc&quot; style=&quot;font-size: 13px&quot;&gt;&lt;br style=&quot;font-size: 13px&quot;&gt;&lt;/font&gt;&lt;/span&gt;" style="text;html=1;strokeColor=none;fillColor=none;align=center;verticalAlign=middle;whiteSpace=wrap;rounded=0;fontSize=13;fontColor=#B3B3B3;sketch=1;fontFamily=Architects Daughter;fontSource=https%3A%2F%2Ffonts.googleapis.com%2Fcss%3Ffamily%3DArchitects%2BDaughter;" parent="U_fYF4rXB53wSbd23XHR-2" vertex="1">
          <mxGeometry x="490" y="336.5" width="170" height="40" as="geometry" />
        </mxCell>
        <mxCell id="ilY5u6nDV1AzrqMbQQu_-23" value="" style="endArrow=none;dashed=1;html=1;rounded=0;" parent="U_fYF4rXB53wSbd23XHR-2" edge="1">
          <mxGeometry width="50" height="50" relative="1" as="geometry">
            <mxPoint x="486.44" y="312" as="sourcePoint" />
            <mxPoint x="486.44" y="427" as="targetPoint" />
          </mxGeometry>
        </mxCell>
        <mxCell id="ilY5u6nDV1AzrqMbQQu_-24" value="" style="endArrow=none;dashed=1;html=1;rounded=0;" parent="U_fYF4rXB53wSbd23XHR-2" edge="1">
          <mxGeometry width="50" height="50" relative="1" as="geometry">
            <mxPoint x="660" y="312" as="sourcePoint" />
            <mxPoint x="660" y="428" as="targetPoint" />
          </mxGeometry>
        </mxCell>
        <mxCell id="ilY5u6nDV1AzrqMbQQu_-26" value="" style="endArrow=none;dashed=1;html=1;rounded=0;" parent="U_fYF4rXB53wSbd23XHR-2" edge="1">
          <mxGeometry width="50" height="50" relative="1" as="geometry">
            <mxPoint x="490" y="740" as="sourcePoint" />
            <mxPoint x="490" y="859" as="targetPoint" />
          </mxGeometry>
        </mxCell>
        <mxCell id="ilY5u6nDV1AzrqMbQQu_-27" value="Costs" style="text;html=1;strokeColor=none;fillColor=none;align=center;verticalAlign=middle;whiteSpace=wrap;rounded=0;fontSize=13;fontStyle=1;sketch=1;fontFamily=Architects Daughter;fontSource=https%3A%2F%2Ffonts.googleapis.com%2Fcss%3Ffamily%3DArchitects%2BDaughter;" parent="U_fYF4rXB53wSbd23XHR-2" vertex="1">
          <mxGeometry x="660" y="323" width="180" height="20" as="geometry" />
        </mxCell>
        <mxCell id="ilY5u6nDV1AzrqMbQQu_-28" value="&lt;span style=&quot;text-align: left ; font-size: 13px&quot;&gt;&lt;font color=&quot;#cccccc&quot; style=&quot;font-size: 13px&quot;&gt;Budget and cost control&lt;br style=&quot;font-size: 13px&quot;&gt;&lt;/font&gt;&lt;/span&gt;" style="text;html=1;strokeColor=none;fillColor=none;align=center;verticalAlign=middle;whiteSpace=wrap;rounded=0;fontSize=13;fontColor=#B3B3B3;sketch=1;fontFamily=Architects Daughter;fontSource=https%3A%2F%2Ffonts.googleapis.com%2Fcss%3Ffamily%3DArchitects%2BDaughter;" parent="U_fYF4rXB53wSbd23XHR-2" vertex="1">
          <mxGeometry x="665" y="336.5" width="170" height="40" as="geometry" />
        </mxCell>
        <mxCell id="ilY5u6nDV1AzrqMbQQu_-29" value="Processing" style="text;html=1;strokeColor=none;fillColor=none;align=center;verticalAlign=middle;whiteSpace=wrap;rounded=0;fontSize=13;fontStyle=1;sketch=1;fontFamily=Architects Daughter;fontSource=https%3A%2F%2Ffonts.googleapis.com%2Fcss%3Ffamily%3DArchitects%2BDaughter;" parent="U_fYF4rXB53wSbd23XHR-2" vertex="1">
          <mxGeometry x="320" y="323" width="170" height="20" as="geometry" />
        </mxCell>
        <mxCell id="ilY5u6nDV1AzrqMbQQu_-30" value="&lt;span style=&quot;text-align: left ; font-size: 13px&quot;&gt;&lt;font color=&quot;#cccccc&quot; style=&quot;font-size: 13px&quot;&gt;Streaming, batch&lt;br style=&quot;font-size: 13px&quot;&gt;&lt;/font&gt;&lt;/span&gt;" style="text;html=1;strokeColor=none;fillColor=none;align=center;verticalAlign=middle;whiteSpace=wrap;rounded=0;fontSize=13;fontColor=#B3B3B3;sketch=1;fontFamily=Architects Daughter;fontSource=https%3A%2F%2Ffonts.googleapis.com%2Fcss%3Ffamily%3DArchitects%2BDaughter;" parent="U_fYF4rXB53wSbd23XHR-2" vertex="1">
          <mxGeometry x="320" y="336.5" width="170" height="40" as="geometry" />
        </mxCell>
        <mxCell id="ilY5u6nDV1AzrqMbQQu_-32" value="" style="rounded=0;whiteSpace=wrap;html=1;strokeWidth=1;sketch=1;fontFamily=Architects Daughter;fontSource=https%3A%2F%2Ffonts.googleapis.com%2Fcss%3Ffamily%3DArchitects%2BDaughter;" parent="U_fYF4rXB53wSbd23XHR-2" vertex="1">
          <mxGeometry x="1167.5" y="943" width="302" height="90" as="geometry" />
        </mxCell>
        <mxCell id="ilY5u6nDV1AzrqMbQQu_-33" value="Follow-up" style="text;html=1;strokeColor=none;fillColor=none;align=left;verticalAlign=middle;whiteSpace=wrap;rounded=0;fontSize=21;fontStyle=1;sketch=1;fontFamily=Architects Daughter;fontSource=https%3A%2F%2Ffonts.googleapis.com%2Fcss%3Ffamily%3DArchitects%2BDaughter;" parent="U_fYF4rXB53wSbd23XHR-2" vertex="1">
          <mxGeometry x="1180" y="953" width="210" height="20" as="geometry" />
        </mxCell>
        <mxCell id="U_fYF4rXB53wSbd23XHR-29" value="Descriptions" parent="0" />
        <mxCell id="U_fYF4rXB53wSbd23XHR-50" value="Content" parent="0" />
        <mxCell id="U_fYF4rXB53wSbd23XHR-47" value="&lt;font color=&quot;#000000&quot; style=&quot;font-size: 13px;&quot;&gt;&amp;lt;Source-System&amp;gt;&lt;/font&gt;" style="rounded=0;whiteSpace=wrap;html=1;labelBackgroundColor=none;strokeWidth=1;fillColor=#d5e8d4;fontSize=13;align=center;strokeColor=#82b366;sketch=1;fontFamily=Architects Daughter;fontSource=https%3A%2F%2Ffonts.googleapis.com%2Fcss%3Ffamily%3DArchitects%2BDaughter;" parent="U_fYF4rXB53wSbd23XHR-50" vertex="1">
          <mxGeometry x="90" y="429" width="110" height="40" as="geometry" />
        </mxCell>
        <mxCell id="E_qXZ96XAn3eAcBALMoJ-4" value="" style="rounded=0;orthogonalLoop=1;jettySize=auto;html=1;endArrow=none;endFill=0;sketch=0;sourcePerimeterSpacing=0;targetPerimeterSpacing=0;" parent="U_fYF4rXB53wSbd23XHR-50" target="E_qXZ96XAn3eAcBALMoJ-6" edge="1">
          <mxGeometry relative="1" as="geometry">
            <mxPoint x="201" y="449" as="sourcePoint" />
          </mxGeometry>
        </mxCell>
        <mxCell id="E_qXZ96XAn3eAcBALMoJ-5" value="" style="rounded=0;orthogonalLoop=1;jettySize=auto;html=1;endArrow=halfCircle;endFill=0;entryX=0.5;entryY=0.5;endSize=6;strokeWidth=1;sketch=0;" parent="U_fYF4rXB53wSbd23XHR-50" target="E_qXZ96XAn3eAcBALMoJ-6" edge="1">
          <mxGeometry relative="1" as="geometry">
            <mxPoint x="320" y="449" as="sourcePoint" />
          </mxGeometry>
        </mxCell>
        <mxCell id="E_qXZ96XAn3eAcBALMoJ-6" value="" style="ellipse;whiteSpace=wrap;html=1;align=center;aspect=fixed;resizable=0;points=[];outlineConnect=0;sketch=0;" parent="U_fYF4rXB53wSbd23XHR-50" vertex="1">
          <mxGeometry x="216" y="444" width="10" height="10" as="geometry" />
        </mxCell>
        <mxCell id="E_qXZ96XAn3eAcBALMoJ-22" value="&lt;font color=&quot;#000000&quot; style=&quot;font-size: 13px;&quot;&gt;&amp;lt;Domain&amp;gt;&lt;br&gt;&amp;lt;Data Product&amp;gt;&lt;/font&gt;" style="rounded=0;whiteSpace=wrap;html=1;labelBackgroundColor=none;strokeWidth=1;fillColor=#FFD4BF;fontSize=13;align=center;strokeColor=#EDA56D;sketch=1;fontFamily=Architects Daughter;fontSource=https%3A%2F%2Ffonts.googleapis.com%2Fcss%3Ffamily%3DArchitects%2BDaughter;fillStyle=hachure;" parent="U_fYF4rXB53wSbd23XHR-50" vertex="1">
          <mxGeometry x="90" y="660" width="110" height="40" as="geometry" />
        </mxCell>
        <mxCell id="E_qXZ96XAn3eAcBALMoJ-23" value="" style="rounded=0;orthogonalLoop=1;jettySize=auto;html=1;endArrow=none;endFill=0;sketch=0;sourcePerimeterSpacing=0;targetPerimeterSpacing=0;" parent="U_fYF4rXB53wSbd23XHR-50" target="E_qXZ96XAn3eAcBALMoJ-25" edge="1">
          <mxGeometry relative="1" as="geometry">
            <mxPoint x="201" y="680" as="sourcePoint" />
          </mxGeometry>
        </mxCell>
        <mxCell id="E_qXZ96XAn3eAcBALMoJ-24" value="" style="rounded=0;orthogonalLoop=1;jettySize=auto;html=1;endArrow=halfCircle;endFill=0;entryX=0.5;entryY=0.5;endSize=6;strokeWidth=1;sketch=0;" parent="U_fYF4rXB53wSbd23XHR-50" target="E_qXZ96XAn3eAcBALMoJ-25" edge="1">
          <mxGeometry relative="1" as="geometry">
            <mxPoint x="320" y="679" as="sourcePoint" />
          </mxGeometry>
        </mxCell>
        <mxCell id="E_qXZ96XAn3eAcBALMoJ-25" value="" style="ellipse;whiteSpace=wrap;html=1;align=center;aspect=fixed;resizable=0;points=[];outlineConnect=0;sketch=0;" parent="U_fYF4rXB53wSbd23XHR-50" vertex="1">
          <mxGeometry x="216" y="675" width="10" height="10" as="geometry" />
        </mxCell>
        <mxCell id="E_qXZ96XAn3eAcBALMoJ-27" value="&amp;lt;Output Port&amp;gt;" style="rounded=0;whiteSpace=wrap;html=1;labelBackgroundColor=none;strokeWidth=1;fillColor=#FFD4BF;fontSize=13;align=center;strokeColor=#EDA56D;sketch=1;fontFamily=Architects Daughter;fontSource=https%3A%2F%2Ffonts.googleapis.com%2Fcss%3Ffamily%3DArchitects%2BDaughter;fillStyle=hachure;" parent="U_fYF4rXB53wSbd23XHR-50" vertex="1">
          <mxGeometry x="880" y="427.5" width="80" height="40" as="geometry" />
        </mxCell>
        <mxCell id="E_qXZ96XAn3eAcBALMoJ-34" value="&lt;font color=&quot;#000000&quot; style=&quot;font-size: 13px;&quot;&gt;&amp;lt;Quality&amp;gt;&lt;/font&gt;" style="rounded=0;whiteSpace=wrap;html=1;labelBackgroundColor=none;strokeWidth=1;fillColor=#dae8fc;fontSize=13;align=center;strokeColor=#6c8ebf;sketch=1;fontFamily=Architects Daughter;fontSource=https%3A%2F%2Ffonts.googleapis.com%2Fcss%3Ffamily%3DArchitects%2BDaughter;" parent="U_fYF4rXB53wSbd23XHR-50" vertex="1">
          <mxGeometry x="879" y="683" width="80" height="40" as="geometry" />
        </mxCell>
        <mxCell id="E_qXZ96XAn3eAcBALMoJ-36" value="" style="rounded=0;orthogonalLoop=1;jettySize=auto;html=1;endArrow=none;endFill=0;sketch=0;sourcePerimeterSpacing=0;targetPerimeterSpacing=0;" parent="U_fYF4rXB53wSbd23XHR-50" target="E_qXZ96XAn3eAcBALMoJ-37" edge="1">
          <mxGeometry relative="1" as="geometry">
            <mxPoint x="840" y="449" as="sourcePoint" />
            <Array as="points" />
          </mxGeometry>
        </mxCell>
        <mxCell id="E_qXZ96XAn3eAcBALMoJ-37" value="" style="ellipse;whiteSpace=wrap;html=1;align=center;aspect=fixed;resizable=0;points=[];outlineConnect=0;sketch=0;" parent="U_fYF4rXB53wSbd23XHR-50" vertex="1">
          <mxGeometry x="865" y="444" width="10" height="10" as="geometry" />
        </mxCell>
        <mxCell id="E_qXZ96XAn3eAcBALMoJ-45" value="&lt;span style=&quot;font-size: 13px; font-style: normal; font-weight: 400; letter-spacing: normal; text-align: left; text-indent: 0px; text-transform: none; word-spacing: 0px; display: inline; float: none;&quot;&gt;Operational systems&lt;br&gt;where domain data is generated in the first place&lt;br&gt;&lt;/span&gt;" style="text;whiteSpace=wrap;html=1;fontFamily=Architects Daughter;labelBackgroundColor=none;fontSize=13;fontColor=#CCCCCC;sketch=1;fontSource=https%3A%2F%2Ffonts.googleapis.com%2Fcss%3Ffamily%3DArchitects%2BDaughter;" parent="U_fYF4rXB53wSbd23XHR-50" vertex="1">
          <mxGeometry x="90" y="472" width="140" height="50" as="geometry" />
        </mxCell>
        <mxCell id="E_qXZ96XAn3eAcBALMoJ-48" value="&lt;span style=&quot;font-size: 13px; font-style: normal; font-weight: 400; letter-spacing: normal; text-align: left; text-indent: 0px; text-transform: none; word-spacing: 0px; display: inline; float: none;&quot;&gt;Other data products, from the same team or from other domains&lt;br&gt;&lt;/span&gt;" style="text;whiteSpace=wrap;html=1;fontFamily=Architects Daughter;labelBackgroundColor=none;fontSize=13;fontColor=#CCCCCC;sketch=1;fontSource=https%3A%2F%2Ffonts.googleapis.com%2Fcss%3Ffamily%3DArchitects%2BDaughter;" parent="U_fYF4rXB53wSbd23XHR-50" vertex="1">
          <mxGeometry x="90" y="711.5" width="140" height="50" as="geometry" />
        </mxCell>
        <mxCell id="E_qXZ96XAn3eAcBALMoJ-49" value="&lt;span style=&quot;font-size: 13px; font-style: normal; font-weight: 400; letter-spacing: normal; text-align: left; text-indent: 0px; text-transform: none; word-spacing: 0px; display: inline; float: none;&quot;&gt;The format and protocol of provided data&lt;br&gt;(S3, Parquet, Delta,, topic,&lt;br&gt;schema, table, dashboard)&lt;/span&gt;" style="text;whiteSpace=wrap;html=1;fontFamily=Architects Daughter;labelBackgroundColor=none;fontSize=13;fontColor=#CCCCCC;fontSource=https%3A%2F%2Ffonts.googleapis.com%2Fcss%3Ffamily%3DArchitects%2BDaughter;" parent="U_fYF4rXB53wSbd23XHR-50" vertex="1">
          <mxGeometry x="978" y="414.5" width="202" height="50" as="geometry" />
        </mxCell>
        <mxCell id="E_qXZ96XAn3eAcBALMoJ-52" value="&lt;font color=&quot;#000000&quot; style=&quot;font-size: 13px;&quot;&gt;&amp;lt;Data Model&amp;gt;&lt;/font&gt;" style="rounded=0;whiteSpace=wrap;html=1;labelBackgroundColor=none;strokeWidth=1;fillColor=#fff2cc;fontSize=13;align=center;strokeColor=#d6b656;sketch=1;fontFamily=Architects Daughter;fontSource=https%3A%2F%2Ffonts.googleapis.com%2Fcss%3Ffamily%3DArchitects%2BDaughter;spacing=0;" parent="U_fYF4rXB53wSbd23XHR-50" vertex="1">
          <mxGeometry x="880" y="551" width="80" height="40" as="geometry" />
        </mxCell>
        <mxCell id="E_qXZ96XAn3eAcBALMoJ-53" value="&lt;p style=&quot;font-size: 13px;&quot;&gt;&lt;span style=&quot;font-size: 13px;&quot;&gt;&lt;font style=&quot;font-size: 13px;&quot;&gt;Models, fields, data types, descriptions, constraints, and relationships.&lt;/font&gt;&lt;/span&gt;&lt;br&gt;&lt;/p&gt;" style="text;whiteSpace=wrap;html=1;fontFamily=Architects Daughter;labelBackgroundColor=none;fontSize=13;fontColor=#CCCCCC;fontSource=https%3A%2F%2Ffonts.googleapis.com%2Fcss%3Ffamily%3DArchitects%2BDaughter;verticalAlign=middle;" parent="U_fYF4rXB53wSbd23XHR-50" vertex="1">
          <mxGeometry x="978" y="542" width="181" height="55" as="geometry" />
        </mxCell>
        <mxCell id="E_qXZ96XAn3eAcBALMoJ-54" value="&lt;font color=&quot;#000000&quot; style=&quot;font-size: 13px;&quot;&gt;&amp;lt;Terms&amp;gt;&lt;/font&gt;" style="rounded=0;whiteSpace=wrap;html=1;labelBackgroundColor=none;strokeWidth=1;fillColor=#fff2cc;fontSize=13;align=center;strokeColor=#d6b656;sketch=1;fontFamily=Architects Daughter;fontSource=https%3A%2F%2Ffonts.googleapis.com%2Fcss%3Ffamily%3DArchitects%2BDaughter;" parent="U_fYF4rXB53wSbd23XHR-50" vertex="1">
          <mxGeometry x="880" y="495" width="80" height="40" as="geometry" />
        </mxCell>
        <mxCell id="E_qXZ96XAn3eAcBALMoJ-55" value="&lt;p style=&quot;font-size: 13px;&quot;&gt;&lt;span style=&quot;font-size: 13px;&quot;&gt;&lt;font style=&quot;font-size: 13px;&quot;&gt;Terms and conditions, limitations, pricing&lt;/font&gt;&lt;/span&gt;&lt;br style=&quot;font-size: 13px;&quot;&gt;&lt;/p&gt;" style="text;whiteSpace=wrap;html=1;fontFamily=Architects Daughter;labelBackgroundColor=none;fontSize=13;fontColor=#CCCCCC;fontSource=https%3A%2F%2Ffonts.googleapis.com%2Fcss%3Ffamily%3DArchitects%2BDaughter;" parent="U_fYF4rXB53wSbd23XHR-50" vertex="1">
          <mxGeometry x="978" y="479" width="181" height="55" as="geometry" />
        </mxCell>
        <mxCell id="E_qXZ96XAn3eAcBALMoJ-58" value="&lt;font color=&quot;#000000&quot; style=&quot;font-size: 13px;&quot;&gt;&amp;lt;SLAs&amp;gt;&lt;/font&gt;" style="rounded=0;whiteSpace=wrap;html=1;labelBackgroundColor=none;strokeWidth=1;fillColor=#dae8fc;fontSize=13;align=center;strokeColor=#6c8ebf;sketch=1;fontFamily=Architects Daughter;fontSource=https%3A%2F%2Ffonts.googleapis.com%2Fcss%3Ffamily%3DArchitects%2BDaughter;" parent="U_fYF4rXB53wSbd23XHR-50" vertex="1">
          <mxGeometry x="879" y="746" width="80" height="40" as="geometry" />
        </mxCell>
        <mxCell id="E_qXZ96XAn3eAcBALMoJ-59" value="&lt;p style=&quot;font-size: 13px;&quot;&gt;&lt;span style=&quot;font-size: 13px;&quot;&gt;&lt;font style=&quot;font-size: 13px;&quot;&gt;Testable checks that validate data promises and expectations, e.g. uniqueness, consistency, freshness, ...&amp;nbsp;&lt;/font&gt;&lt;/span&gt;&lt;br style=&quot;font-size: 13px;&quot;&gt;&lt;/p&gt;" style="text;whiteSpace=wrap;html=1;fontFamily=Architects Daughter;labelBackgroundColor=none;fontSize=13;fontColor=#CCCCCC;fontSource=https%3A%2F%2Ffonts.googleapis.com%2Fcss%3Ffamily%3DArchitects%2BDaughter;verticalAlign=middle;" parent="U_fYF4rXB53wSbd23XHR-50" vertex="1">
          <mxGeometry x="978" y="670" width="181" height="55" as="geometry" />
        </mxCell>
        <mxCell id="E_qXZ96XAn3eAcBALMoJ-60" value="&lt;p style=&quot;font-size: 13px;&quot;&gt;&lt;span style=&quot;background-color: initial;&quot;&gt;e.g., create a Data Contract YAML (datacontract.com)&lt;br&gt;&lt;/span&gt;&lt;span style=&quot;background-color: initial;&quot;&gt;Date:&lt;/span&gt;&lt;/p&gt;" style="text;whiteSpace=wrap;html=1;fontFamily=Architects Daughter;labelBackgroundColor=none;fontSize=13;fontColor=#B3B3B3;fontSource=https%3A%2F%2Ffonts.googleapis.com%2Fcss%3Ffamily%3DArchitects%2BDaughter;align=left;verticalAlign=middle;" parent="U_fYF4rXB53wSbd23XHR-50" vertex="1">
          <mxGeometry x="1180" y="972" width="272" height="55" as="geometry" />
        </mxCell>
        <mxCell id="_RJIDZ-uKf1e74ciLjUj-0" value="&lt;font color=&quot;#000000&quot; style=&quot;font-size: 13px;&quot;&gt;&amp;lt;Definitions&amp;gt;&lt;/font&gt;" style="rounded=0;whiteSpace=wrap;html=1;labelBackgroundColor=none;strokeWidth=1;fillColor=#fff2cc;fontSize=13;align=center;strokeColor=#d6b656;sketch=1;fontFamily=Architects Daughter;fontSource=https%3A%2F%2Ffonts.googleapis.com%2Fcss%3Ffamily%3DArchitects%2BDaughter;" parent="U_fYF4rXB53wSbd23XHR-50" vertex="1">
          <mxGeometry x="880" y="615" width="80" height="40" as="geometry" />
        </mxCell>
        <mxCell id="_RJIDZ-uKf1e74ciLjUj-1" value="&lt;p style=&quot;font-size: 13px;&quot;&gt;Semantic definitions, &lt;br&gt;Business keys, Join keys, PII&lt;/p&gt;" style="text;whiteSpace=wrap;html=1;fontFamily=Architects Daughter;labelBackgroundColor=none;fontSize=13;fontColor=#CCCCCC;fontSource=https%3A%2F%2Ffonts.googleapis.com%2Fcss%3Ffamily%3DArchitects%2BDaughter;" parent="U_fYF4rXB53wSbd23XHR-50" vertex="1">
          <mxGeometry x="978" y="600" width="181" height="57" as="geometry" />
        </mxCell>
      </root>
    </mxGraphModel>
  </diagram>
</mxfile>
